<svg width="17" height="16" viewBox="0 0 17 16" fill="none" xmlns="http://www.w3.org/2000/svg">
<path d="M15.9989 5.27628C16.005 4.37118 15.7302 3.48777 15.2146 2.75487C14.6989 2.02196 13.9695 1.47791 13.1326 1.20205C12.2957 0.926197 11.3952 0.932964 10.5623 1.22137C9.72938 1.50977 9.00772 2.06472 8.50254 2.80529C7.99735 2.06472 7.27569 1.50977 6.4428 1.22137C5.60991 0.932964 4.70935 0.926197 3.87246 1.20205C3.03557 1.47791 2.30613 2.02196 1.79052 2.75487C1.2749 3.48777 1.00008 4.37118 1.00614 5.27628C0.997954 5.4306 0.997954 5.58527 1.00614 5.73959C1.45592 10.2183 8.50254 14.9286 8.50254 14.9286C8.50254 14.9286 14.7245 10.6043 15.849 6.51177C15.9576 6.10977 16.0082 5.69346 15.9989 5.27628Z" stroke="#FCFCFC" stroke-miterlimit="10" stroke-linecap="round" stroke-linejoin="round"/>
</svg>
