<svg width="16" height="16" viewBox="0 0 16 16" fill="none" xmlns="http://www.w3.org/2000/svg">
<path d="M15.112 3.77728C14.844 3.87721 14.5693 3.95808 14.29 4.01928C14.2632 4.02528 14.2352 4.02231 14.2103 4.01083C14.1854 3.99935 14.1649 3.97999 14.1521 3.95574C14.1393 3.93148 14.1348 3.90369 14.1393 3.87664C14.1439 3.84958 14.1572 3.82477 14.1772 3.80603C14.4976 3.4992 14.7615 3.13846 14.957 2.74028C14.9683 2.71673 14.9719 2.69024 14.9673 2.66452C14.9628 2.6388 14.9503 2.61516 14.9316 2.5969C14.913 2.57864 14.889 2.56669 14.8632 2.56272C14.8374 2.55876 14.811 2.56297 14.7877 2.57478C14.2805 2.84686 13.7272 3.02242 13.156 3.09253C12.5572 2.49817 11.7496 2.16169 10.906 2.15503C10.4996 2.15467 10.0972 2.23444 9.72172 2.38977C9.34623 2.54511 9.00506 2.77296 8.71773 3.06029C8.4304 3.34762 8.20255 3.68879 8.04722 4.06427C7.89188 4.43976 7.81211 4.84218 7.81247 5.24853C7.81142 5.47698 7.83497 5.70488 7.88272 5.92828C5.62073 5.85978 2.98023 4.76653 1.43748 2.86603C1.42461 2.84991 1.40796 2.83723 1.389 2.82911C1.37004 2.82099 1.34937 2.81768 1.32883 2.81949C1.30829 2.8213 1.28851 2.82816 1.27126 2.83946C1.25401 2.85077 1.23983 2.86616 1.22998 2.88428C0.932683 3.49678 0.843983 4.18973 0.977419 4.85736C1.11085 5.52499 1.45909 6.13061 1.96898 6.58178C1.98947 6.59846 2.00415 6.6212 2.01091 6.64673C2.01767 6.67227 2.01617 6.6993 2.00662 6.72393C1.99706 6.74856 1.97995 6.76953 1.95774 6.78383C1.93553 6.79814 1.90935 6.80503 1.88298 6.80353C1.61354 6.79154 1.34957 6.72342 1.10798 6.60353C1.08833 6.59358 1.06641 6.58899 1.04443 6.59024C1.02244 6.59148 1.00118 6.59851 0.982781 6.61061C0.964386 6.62271 0.949514 6.63946 0.939671 6.65916C0.929828 6.67886 0.925362 6.7008 0.926726 6.72278C0.95185 7.31352 1.15613 7.88263 1.51243 8.3545C1.86873 8.82637 2.36018 9.17864 2.92148 9.36453C2.94754 9.37393 2.96975 9.39172 2.9846 9.41511C2.99946 9.43849 3.00612 9.46616 3.00354 9.49374C3.00097 9.52133 2.9893 9.54728 2.97037 9.56751C2.95144 9.58775 2.92633 9.60112 2.89898 9.60553C2.66356 9.63224 2.42589 9.63224 2.19048 9.60553C2.17016 9.60362 2.14967 9.60666 2.13078 9.61438C2.11189 9.6221 2.09515 9.63428 2.08198 9.64988C2.06882 9.66548 2.05962 9.68403 2.05518 9.70395C2.05074 9.72387 2.05118 9.74457 2.05648 9.76428C2.26873 10.5848 3.32948 11.5455 4.51623 11.6773C4.54001 11.6804 4.5624 11.6903 4.58072 11.7057C4.59905 11.7212 4.61253 11.7416 4.61957 11.7646C4.6266 11.7875 4.6269 11.812 4.62041 11.835C4.61392 11.8581 4.60093 11.8789 4.58298 11.8948C3.59334 12.6874 2.34971 13.094 1.08298 13.039C1.05459 13.0378 1.02662 13.0462 1.00368 13.063C0.980741 13.0797 0.964195 13.1038 0.956771 13.1312C0.949347 13.1587 0.951488 13.1878 0.962841 13.2139C0.974193 13.2399 0.994081 13.2613 1.01923 13.2745C2.35578 13.9755 3.84252 14.3415 5.35173 14.341C6.52457 14.3488 7.68668 14.1172 8.767 13.6606C9.84731 13.2039 10.8231 12.5317 11.6348 11.685C12.4465 10.8384 13.0769 9.83507 13.4876 8.73646C13.8984 7.63785 14.0807 6.46701 14.0235 5.29553V5.17828C14.4983 4.84553 14.9151 4.4368 15.257 3.96853C15.2731 3.94681 15.2817 3.92045 15.2816 3.8934C15.2814 3.86635 15.2725 3.84008 15.2562 3.81853C15.2399 3.79697 15.217 3.7813 15.191 3.77387C15.165 3.76643 15.1372 3.76763 15.112 3.77728V3.77728Z" stroke="white" stroke-miterlimit="10"/>
</svg>
